<?xml version="1.0" encoding="utf-8"?>
<!-- Generator: Adobe Illustrator 24.0.3, SVG Export Plug-In . SVG Version: 6.00 Build 0)  -->
<svg version="1.1" id="Layer_1" xmlns="http://www.w3.org/2000/svg" xmlns:xlink="http://www.w3.org/1999/xlink" x="0px" y="0px"
	 width="1440px" height="864px" viewBox="0 0 1440 864" style="enable-background:new 0 0 1440 864;" xml:space="preserve">
<style type="text/css">
	.st0{fill:none;stroke:#231F20;stroke-miterlimit:10;}
</style>
<rect x="237.3" y="16" class="st0" width="540" height="745.1"/>
<g>
	<path d="M438.5,149.8c-0.4,2.2-1.3,3.9-2.7,5.1c-1.4,1.2-2.8,2.3-4.2,3.2v-12.5c0.5-1.7,1.4-3.1,2.7-4.4c1.3-1.2,2.6-2.2,3.8-2.9
		L438.5,149.8z M452.3,133.1v68h-9.7c0.1-5.6,0.2-11.3,0.1-17.1c-0.1-5.8-0.1-11.5-0.1-17.3c0-5.8,0-11.5,0-17.1
		c0.1-5.6,0.3-11.1,0.6-16.5H452.3z"/>
	<path d="M458.3,181.5h9.7c0.2,1,0.4,1.9,0.5,2.9c0.2,1,0.4,1.9,0.7,2.7c0.3,0.8,0.7,1.6,1.2,2.2c0.5,0.6,1.2,1.1,2.1,1.3v10.3
		c-2.9,0.1-5.2-0.4-6.9-1.5c-1.7-1.1-3.1-2.5-4.1-4.4c-1-1.8-1.7-3.9-2.2-6.2C459.1,186.4,458.7,184,458.3,181.5z M459.5,132.9h13.2
		v11.4h-4v12.6c0.2,0.3,0.4,0.4,0.7,0.3c0.3-0.1,0.6-0.3,1-0.5c0.4-0.2,0.7-0.4,1.1-0.7c0.4-0.2,0.8-0.3,1.2-0.2
		c0.4,2,0.5,3.7,0.3,5.2c-0.2,1.5-0.5,2.8-1,3.9c-0.4,1.2-1,2.2-1.6,3.2c-0.6,1-1.2,2-1.8,3.1h-9.1V132.9z M476,132.9h13.2v11.4H476
		V132.9z M476,155.2c2.6-0.1,4.8,0.4,6.7,1.7c1.9,1.3,3.5,3,4.8,5.2c1.2,2.2,2.2,4.7,2.8,7.5c0.6,2.8,0.9,5.7,0.9,8.6
		c0,2.9-0.4,5.8-1.1,8.6c-0.7,2.8-1.6,5.3-2.9,7.5c-1.2,2.2-2.8,3.9-4.7,5.2c-1.9,1.3-4,1.9-6.5,1.9v-10.3c1.1-0.4,2-1.3,2.7-2.7
		c0.7-1.3,1.3-2.9,1.7-4.7c0.4-1.8,0.6-3.6,0.6-5.5c0-2-0.2-3.9-0.5-5.6c-0.4-1.8-0.9-3.3-1.6-4.6c-0.7-1.3-1.7-2.2-2.8-2.6V155.2z"
		/>
	<path d="M496.4,181.5h9.7c0.2,1,0.4,1.9,0.5,2.9c0.2,1,0.4,1.9,0.7,2.7c0.3,0.8,0.7,1.6,1.2,2.2c0.5,0.6,1.2,1.1,2.1,1.3v10.3
		c-2.9,0.1-5.2-0.4-6.9-1.5c-1.7-1.1-3.1-2.5-4.1-4.4c-1-1.8-1.7-3.9-2.2-6.2C497.1,186.4,496.7,184,496.4,181.5z M497.5,132.9h13.2
		v11.4h-4v12.6c0.2,0.3,0.4,0.4,0.7,0.3c0.3-0.1,0.6-0.3,1-0.5c0.4-0.2,0.7-0.4,1.1-0.7c0.4-0.2,0.8-0.3,1.2-0.2
		c0.4,2,0.5,3.7,0.3,5.2c-0.2,1.5-0.5,2.8-1,3.9c-0.4,1.2-1,2.2-1.6,3.2c-0.6,1-1.2,2-1.8,3.1h-9.1V132.9z M514,132.9h13.2v11.4H514
		V132.9z M514,155.2c2.6-0.1,4.8,0.4,6.7,1.7c1.9,1.3,3.5,3,4.8,5.2c1.2,2.2,2.2,4.7,2.8,7.5c0.6,2.8,0.9,5.7,0.9,8.6
		c0,2.9-0.4,5.8-1.1,8.6c-0.7,2.8-1.6,5.3-2.9,7.5c-1.2,2.2-2.8,3.9-4.7,5.2c-1.9,1.3-4,1.9-6.5,1.9v-10.3c1.1-0.4,2-1.3,2.7-2.7
		c0.7-1.3,1.3-2.9,1.7-4.7c0.4-1.8,0.6-3.6,0.6-5.5c0-2-0.2-3.9-0.5-5.6c-0.4-1.8-0.9-3.3-1.6-4.6c-0.7-1.3-1.7-2.2-2.8-2.6V155.2z"
		/>
	<path d="M546.1,133v67.4c-0.6,0.3-1.3,0.5-2.1,0.6c-0.8,0.1-1.7,0.1-2.6,0c-0.9,0-1.9-0.1-2.8-0.1c-1,0-1.9,0-2.7,0
		c0.1-5.6,0.2-11.3,0.1-17.1c-0.1-5.8-0.1-11.5-0.1-17.3c0-5.8,0-11.5,0-17.1c0.1-5.6,0.3-11.1,0.6-16.5H546.1z M573.5,133v68h-10.3
		v-30.2h-13.6V161h13.1c0.3-2,0.5-4.2,0.6-6.6c0.1-2.3,0.1-4.7,0-7.1c0-2.4-0.1-4.8-0.1-7.2c0-2.4,0-4.8,0-7.1H573.5z"/>
	<path d="M462.5,248.3v67.9h-10.3v-57.7h-13.7c0.1-0.8,0.2-1.7,0.1-2.7c-0.1-1.1-0.1-2.1-0.2-3.1c-0.1-1,0-1.9,0.1-2.7
		c0.2-0.8,0.5-1.4,1.1-1.7H462.5z M466.5,248.3h9.1v10.2h-9.1V248.3z"/>
	<path d="M493.1,248.8c0.3,5.4,0.5,10.9,0.6,16.5c0.1,5.6,0.1,11.2,0,16.9c0,5.7-0.1,11.4-0.1,17.1c0,5.7,0,11.3,0,16.9h-10.3
		c0.1-5.6,0.2-11.3,0.1-17.1c-0.1-5.8-0.1-11.5-0.2-17.3c-0.1-5.8-0.1-11.5,0-17.1c0.1-5.6,0.3-11.1,0.6-16.5c0.8,0.1,1.6,0.1,2.4,0
		c0.8,0,1.7-0.1,2.5-0.1c0.8,0,1.6,0,2.4,0C491.9,248.3,492.5,248.5,493.1,248.8z M522.7,248.2v68h-9.1c-1.1-3-2.3-5.9-3.7-8.5
		c-1.4-2.7-2.8-5.4-4.1-8.1c-1.4-2.7-2.7-5.4-3.9-8.3c-1.2-2.8-2.2-5.8-3.1-9.1c-0.8-3.2-1.4-6.8-1.7-10.6c-0.3-3.8-0.1-8,0.4-12.6
		c2.6,5,5,10,7.4,14.9c2.4,5,4.7,10.1,6.9,15.4c0.3-3.1,0.5-6.4,0.6-9.8c0.1-3.4,0.1-6.9,0-10.4c0-3.5-0.1-7-0.1-10.6
		c0-3.5,0-7,0-10.4H522.7z"/>
	<path d="M553.5,248.3v67.9h-10.3v-57.7h-13.7c0.1-0.8,0.2-1.7,0.1-2.7c-0.1-1.1-0.1-2.1-0.2-3.1c-0.1-1,0-1.9,0.1-2.7
		c0.2-0.8,0.5-1.4,1.1-1.7H553.5z M557.5,248.3h9.1v10.2h-9.1V248.3z"/>
	<path d="M374.7,339.8v34c-0.4,0-0.9,0-1.4,0c-0.5,0-1,0-1.5,0c-0.5,0-1,0-1.4,0c-0.4,0-0.8-0.1-1.1-0.3c0.1-2.8,0.1-5.6,0-8.5
		c0-2.9-0.1-5.7-0.1-8.6c0-2.8,0-5.7,0-8.5c0-2.8,0.1-5.5,0.3-8.2H374.7z M376.7,368.3h9.4v5.4h-9.4V368.3z"/>
	<path d="M397.2,339.5h1.4v5.1c-0.5,0.3-1,0.6-1.6,1c-0.6,0.4-1,0.9-1.2,1.6c-0.3,0.6-0.5,1.4-0.6,2.4c-0.2,1-0.3,2.1-0.4,3.4
		c-0.1,1.2-0.1,2.5-0.1,3.8c0,1.3,0,2.6,0.1,3.7c0.1,1.2,0.2,2.3,0.4,3.2c0.2,1,0.4,1.7,0.6,2.3c0.2,0.4,0.4,0.6,0.6,0.9
		c0.3,0.2,0.5,0.4,0.8,0.6c0.3,0.2,0.6,0.4,0.8,0.7c0.3,0.3,0.4,0.6,0.6,1c0.3,0.7,0.3,1.5,0.1,2.3c-0.2,0.8-0.3,1.6-0.4,2.3
		c-1.6-0.1-3.1-0.7-4.5-1.7c-1.3-1-2.3-2.4-3-4.3c-0.3-1-0.6-2.2-0.8-3.5c-0.2-1.3-0.4-2.8-0.5-4.2c-0.1-1.5-0.1-3-0.1-4.6
		c0-1.6,0.1-3,0.3-4.5c0.2-1.4,0.4-2.7,0.6-3.9c0.3-1.2,0.6-2.2,1-3c0.5-1.1,1.4-2.1,2.4-2.9C395,340.5,396.1,339.9,397.2,339.5z
		 M400.6,339.5h1.1c1,0.4,2.1,0.8,3.1,1.4c1,0.6,1.9,1.5,2.6,2.9c0.7,1.2,1.2,2.9,1.6,4.9c0.4,2,0.6,4.1,0.6,6.4
		c0,2.3-0.1,4.6-0.4,6.8c-0.3,2.3-0.8,4.3-1.6,6.1c-0.7,1.8-1.7,3.2-2.9,4.3c-1.2,1.1-2.6,1.6-4.2,1.4v-4.8c0.1-0.3,0.2-0.5,0.5-0.7
		c0.2-0.2,0.5-0.4,0.8-0.6c0.3-0.2,0.6-0.5,0.9-0.7c0.3-0.3,0.5-0.7,0.7-1.2c0.3-0.7,0.5-1.5,0.6-2.6c0.2-1,0.3-2.2,0.3-3.4
		c0.1-1.2,0.1-2.4,0.1-3.7c0-1.3-0.1-2.5-0.1-3.6c-0.1-1.2-0.2-2.2-0.3-3.1c-0.1-0.9-0.3-1.6-0.6-2.1c-0.2-0.4-0.4-0.8-0.7-1
		c-0.3-0.2-0.5-0.4-0.8-0.6c-0.3-0.2-0.6-0.4-0.8-0.5c-0.2-0.2-0.4-0.4-0.6-0.7V339.5z"/>
	<path d="M424.2,339.8v33.9h-5.1v-28.8h-6.9c0.1-0.4,0.1-0.8,0-1.4c0-0.5-0.1-1-0.1-1.5c0-0.5,0-0.9,0.1-1.3
		c0.1-0.4,0.3-0.7,0.6-0.8H424.2z M426.2,339.8h4.6v5.1h-4.6V339.8z"/>
	<path d="M459.5,339.8v34h-5.1c0.1-2.8,0.1-5.7,0-8.5c0-2.9-0.1-5.8-0.1-8.6c0-2.9,0-5.7,0-8.5c0-2.8,0.1-5.6,0.3-8.3H459.5z
		 M477.7,339.8v34h-5.1v-19.1c-0.9,1.9-1.7,3.9-2.4,6c-0.8,2-1.6,4-2.4,6h-3.1c-0.9-1.2-1.5-2.5-2-4.1c-0.5-1.6-0.8-3.3-1-5.1
		c-0.2-1.8-0.3-3.7-0.3-5.8s0-4.1,0.1-6.2c0.9,2.2,1.7,4.4,2.4,6.8c0.7,2.3,1.4,4.7,2.1,7c0.6-1.5,1.2-3.1,1.8-4.8
		c0.5-1.6,1.1-3.3,1.6-5c0.5-1.7,1.1-3.3,1.6-4.9c0.6-1.6,1.2-3.2,1.8-4.8H477.7z"/>
	<path d="M481.8,339.8h5.2c0.8,2.8,1.5,5.6,2.1,8.4c0.6,2.9,1.2,5.8,1.9,8.6c0.4,1.4,0.7,2.8,1.2,4.2c0.4,1.4,0.8,2.8,1.2,4.2
		c0.4,1.4,0.6,2.8,0.8,4.2c0.2,1.4,0.2,2.8,0,4.2h-4c-1.3-5.7-2.7-11.4-4.2-16.9C484.5,351.2,483.1,345.6,481.8,339.8z M502.4,339.8
		c-0.4,2.2-0.8,4.4-1.4,6.6c-0.6,2.3-1.1,4.5-1.8,6.8c-0.6,2.3-1.2,4.6-1.8,6.9c-0.6,2.3-1.2,4.6-1.6,6.9c-1.2-2.1-1.9-4.3-2-6.6
		c-0.2-2.3-0.1-4.6,0.3-6.9c0.4-2.3,0.9-4.7,1.5-7c0.7-2.3,1.2-4.6,1.7-6.8H502.4z"/>
	<path d="M511.6,339.8v33.7c-0.3,0.2-0.6,0.3-1.1,0.3c-0.4,0-0.9,0-1.3,0c-0.5,0-0.9,0-1.4,0c-0.5,0-0.9,0-1.3,0
		c0.1-2.8,0.1-5.7,0-8.5c0-2.9-0.1-5.8-0.1-8.6c0-2.9,0-5.7,0-8.5c0-2.8,0.1-5.6,0.3-8.3H511.6z M513.3,339.8h10v5.1h-10V339.8z
		 M513.3,353.8h7.2v4.8h-7.2V353.8z"/>
	<path d="M550.7,348.2c-0.2,1.1-0.6,1.9-1.3,2.5c-0.7,0.6-1.4,1.1-2.1,1.6v-6.2c0.3-0.8,0.7-1.6,1.4-2.2c0.7-0.6,1.3-1.1,1.9-1.5
		L550.7,348.2z M557.6,339.8v34h-4.8c0.1-2.8,0.1-5.7,0-8.5c0-2.9-0.1-5.8-0.1-8.6c0-2.9,0-5.7,0-8.5c0-2.8,0.1-5.6,0.3-8.3H557.6z"
		/>
	<path d="M561.1,358.2h10.6c0.2,0.3,0.3,0.7,0.3,1.2c0,0.4,0,0.9,0,1.4c0,0.5,0,1,0,1.5c0,0.5,0,1,0,1.4h-10.8V358.2z"/>
	<path d="M580.1,348.2c-0.2,1.1-0.6,1.9-1.3,2.5c-0.7,0.6-1.4,1.1-2.1,1.6v-6.2c0.3-0.8,0.7-1.6,1.4-2.2c0.7-0.6,1.3-1.1,1.9-1.5
		L580.1,348.2z M587,339.8v34h-4.8c0.1-2.8,0.1-5.7,0-8.5c0-2.9-0.1-5.8-0.1-8.6c0-2.9,0-5.7,0-8.5c0-2.8,0.1-5.6,0.3-8.3H587z"/>
	<path d="M590.7,363.7h4.8c-0.1,1.3,0.1,2.3,0.6,3.1c0.5,0.8,1.1,1.4,1.9,1.8v5.1c-1.4-0.1-2.6-0.4-3.5-0.9
		c-0.9-0.5-1.7-1.2-2.2-2.1c-0.6-0.9-1-1.9-1.2-3.1C590.9,366.4,590.7,365.1,590.7,363.7z M598.1,339.4v4.8
		c-0.3,0.3-0.6,0.6-0.9,0.9c-0.3,0.3-0.5,0.6-0.8,1c-0.2,0.4-0.4,0.8-0.5,1.2c-0.1,0.5-0.2,1-0.1,1.7h-4.8c0-1.4,0.1-2.6,0.4-3.8
		c0.3-1.1,0.7-2.1,1.2-3c0.6-0.8,1.3-1.5,2.2-2C595.7,339.9,596.8,339.6,598.1,339.4z M599.8,339.4c1.5,0.1,2.8,0.6,3.8,1.5
		s1.9,2,2.5,3.4c0.6,1.3,0.9,2.8,1,4.4c0.1,1.6-0.2,3.1-0.7,4.5c-0.1,0.2-0.2,0.4-0.5,0.6c-0.2,0.3-0.5,0.5-0.8,0.8
		c-0.3,0.3-0.5,0.5-0.7,0.8c-0.2,0.3-0.3,0.5-0.3,0.6c0,0.1,0.1,0.3,0.3,0.5c0.2,0.2,0.4,0.4,0.6,0.7c0.3,0.3,0.5,0.5,0.8,0.8
		c0.3,0.3,0.5,0.6,0.6,0.9c0.4,0.9,0.7,2,0.9,3.1c0.1,1.1,0.2,2.3,0,3.4c-0.1,1.2-0.4,2.3-0.7,3.3c-0.4,1.1-0.9,2-1.5,2.8
		c-0.6,0.8-1.4,1.4-2.3,1.9c-0.9,0.4-1.9,0.6-3,0.6v-5.1c0.6-0.2,1.1-0.6,1.5-1.2c0.4-0.6,0.7-1.3,0.9-2c0.2-0.8,0.2-1.6,0.2-2.4
		c0-0.8-0.2-1.6-0.6-2.3c-0.3-0.7-0.8-1.2-1.4-1.5c-0.6-0.4-1.4-0.5-2.4-0.3v-5.4c0.4,0,0.8,0,1.3,0c0.4,0,0.8-0.1,1-0.3
		c0.6-0.4,1.1-1,1.4-1.9c0.3-0.9,0.4-1.8,0.3-2.8c-0.1-1-0.3-1.8-0.7-2.6c-0.4-0.8-0.9-1.3-1.6-1.6V339.4z"/>
	<path d="M629.8,358.2h10.6c0.2,0.3,0.3,0.7,0.3,1.2c0,0.4,0,0.9,0,1.4c0,0.5,0,1,0,1.5c0,0.5,0,1,0,1.4h-10.8V358.2z"/>
	<path d="M320.2,471.2c0.9,0.7,1.7,1.4,2.5,2.2c0.8,0.8,1.6,1.5,2.5,2.2c0.9,0.7,1.9,1.2,3,1.7c1.1,0.4,2.4,0.7,3.9,0.8v10.8
		c-2.3,0.1-4.4-0.1-6.1-0.6c-1.8-0.4-3.4-1.1-4.8-1.9c-1.4-0.8-2.7-1.8-3.9-2.8c-1.2-1.1-2.3-2.1-3.5-3.2c0.4-0.9,0.9-1.7,1.4-2.4
		c0.6-0.7,1.2-1.4,1.8-2.1c0.6-0.7,1.2-1.4,1.7-2.2C319.3,472.9,319.8,472.1,320.2,471.2z M330.4,420.4c0.6,0.3,1,0.8,1.2,1.5
		c0.1,0.8,0.2,1.6,0.1,2.6c-0.1,1-0.1,1.9-0.2,2.9c-0.1,1,0,1.9,0.1,2.6c-0.8,0.4-1.7,1.2-2.7,2.4c-1,1.2-1.7,2.5-2.3,4
		c-0.6,1.5-0.8,3.1-0.8,4.7c0,1.6,0.6,3,1.8,4.3c0.8,0.9,2,1.5,3.5,1.9c1.5,0.4,3.1,0.7,4.8,0.9c1.8,0.3,3.5,0.6,5.3,1
		c1.8,0.4,3.3,1.1,4.8,2c2,1.4,3.6,3.3,4.7,5.8c1.1,2.4,1.7,5.1,1.8,7.9c0.2,2.8-0.1,5.7-0.8,8.6c-0.7,2.9-1.7,5.5-3.2,7.8
		c-1.4,2.3-3.2,4.2-5.4,5.6c-2.2,1.4-4.7,2.1-7.5,2v-10.3c1.6-0.3,3-1.3,4.1-2.9c1.1-1.6,1.8-3.5,2.1-5.5c0.3-2,0.1-4-0.5-6
		c-0.6-2-2-3.4-3.9-4.4c-1.2-0.6-2.6-1-4-1.2c-1.5-0.2-3-0.4-4.5-0.6c-1.5-0.2-2.9-0.5-4.3-0.9c-1.4-0.4-2.6-1.1-3.7-2
		c-1.7-1.5-3-3.4-3.8-5.7c-0.8-2.3-1.3-4.7-1.3-7.2c-0.1-2.5,0.2-5.1,0.9-7.6c0.7-2.5,1.6-4.8,2.9-6.9c1.3-2.1,2.8-3.8,4.7-5.1
		C326,421.3,328.1,420.6,330.4,420.4z M335.5,419.8c3.6,0.3,6.6,1.2,9.1,2.6c2.5,1.4,4.6,3.2,6.3,5.4c-1,1.5-2,2.9-3.2,4.2
		c-1.2,1.3-2.2,2.8-3.1,4.4c-1.3-1.2-2.6-2.3-4.1-3.4c-1.4-1-3.2-1.8-5.1-2.4V419.8z"/>
	<path d="M371.7,421v67.4c-0.6,0.3-1.3,0.5-2.1,0.6c-0.8,0.1-1.7,0.1-2.6,0c-0.9,0-1.9-0.1-2.8-0.1s-1.9,0-2.7,0
		c0.1-5.6,0.2-11.3,0.1-17.1c-0.1-5.8-0.1-11.5-0.1-17.3c0-5.8,0-11.5,0-17.1c0.1-5.6,0.3-11.1,0.6-16.5H371.7z M399.1,421v68h-10.3
		v-30.2h-13.6V449h13.1c0.3-2,0.5-4.2,0.6-6.6c0.1-2.3,0.1-4.7,0-7.1c0-2.4-0.1-4.8-0.1-7.2c0-2.4,0-4.8,0-7.1H399.1z"/>
	<path d="M419.2,421v68h-10.2c0.1-5.6,0.1-11.3,0-17.1c-0.1-5.8-0.1-11.5-0.1-17.3c0-5.8,0-11.5,0-17.1c0.1-5.6,0.3-11.1,0.6-16.5
		H419.2z M423.3,421h20v10.3h-20V421z M423.3,449H437v9.7h-13.7V449z M423.3,478.1h20V489h-20V478.1z"/>
	<path d="M462.2,421v68c-0.9-0.1-1.8-0.1-2.8,0c-1,0-2,0.1-3,0.1c-1,0-1.9,0-2.8,0c-0.9-0.1-1.6-0.3-2.3-0.6
		c0.1-5.6,0.2-11.2,0.1-16.9c-0.1-5.7-0.1-11.4-0.2-17.1c-0.1-5.7-0.1-11.3,0-16.9c0.1-5.6,0.3-11.1,0.6-16.4H462.2z M466.2,478.1
		H485V489h-18.8V478.1z"/>
	<path d="M503.7,421v68c-0.9-0.1-1.8-0.1-2.8,0c-1,0-2,0.1-3,0.1c-1,0-1.9,0-2.8,0c-0.9-0.1-1.6-0.3-2.3-0.6
		c0.1-5.6,0.2-11.2,0.1-16.9c-0.1-5.7-0.1-11.4-0.2-17.1c-0.1-5.7-0.1-11.3,0-16.9c0.1-5.6,0.3-11.1,0.6-16.4H503.7z M507.6,478.1
		h18.8V489h-18.8V478.1z"/>
	<path d="M544.6,421v68h-10.3c0.1-5.6,0.2-11.3,0.1-17.1c-0.1-5.8-0.1-11.5-0.1-17.3c0-5.8,0-11.5,0-17.1c0.1-5.6,0.3-11.1,0.6-16.5
		H544.6z M581.1,421v68h-10.3v-38.2c-1.7,3.8-3.3,7.8-4.8,11.9c-1.5,4.1-3.1,8.1-4.8,12h-6.2c-1.7-2.3-3.1-5-4-8.2
		c-0.9-3.1-1.6-6.5-2-10.2c-0.4-3.6-0.6-7.5-0.6-11.5s0.1-8.2,0.2-12.4c1.9,4.4,3.5,8.9,4.8,13.5c1.4,4.7,2.8,9.3,4.3,13.9
		c1.3-3.1,2.5-6.3,3.6-9.6c1.1-3.3,2.2-6.6,3.2-9.9c1.1-3.3,2.1-6.6,3.3-9.9c1.1-3.3,2.4-6.4,3.7-9.5H581.1z"/>
	<path d="M597.7,437.8c-0.4,2.2-1.3,3.9-2.7,5.1c-1.4,1.2-2.8,2.3-4.2,3.2v-12.5c0.5-1.7,1.4-3.1,2.7-4.4c1.3-1.2,2.6-2.2,3.8-2.9
		L597.7,437.8z M611.5,421.1v68h-9.7c0.1-5.6,0.2-11.3,0.1-17.1c-0.1-5.8-0.1-11.5-0.1-17.3c0-5.8,0-11.5,0-17.1
		c0.1-5.6,0.3-11.1,0.6-16.5H611.5z"/>
	<path d="M632.2,420.3c0.3,0.6,0.5,1.4,0.6,2.3c0.1,0.9,0.1,1.8,0,2.8c0,1-0.1,2-0.1,3c0,1,0,1.9,0,2.8c-0.1,0.5-0.4,0.9-0.7,1.2
		c-0.4,0.3-0.7,0.5-1.1,0.8c-0.4,0.3-0.7,0.5-1,0.8s-0.5,0.7-0.5,1.3c0.1,2.2,0,4.7-0.1,7.3c-0.2,2.7-0.3,5.4-0.5,8.2
		c-0.2,2.8-0.3,5.6-0.3,8.4c-0.1,2.8,0,5.4,0.2,8c0.2,2.5,0.7,4.8,1.3,6.9c0.6,2.1,1.6,3.8,2.8,5.2v9.7c-2.5-0.1-4.6-0.6-6.2-1.6
		c-1.7-1-3-2.4-4-4.2c-1-1.8-1.8-3.8-2.3-6.2c-0.5-2.4-0.9-5-1.1-7.9c-0.2-3.5-0.4-7.1-0.5-10.8c-0.2-3.7-0.2-7.3-0.1-10.8
		c0.1-3.5,0.3-6.9,0.8-10s1.2-6,2.3-8.4c1-2.4,2.4-4.4,4.1-5.9C627.4,421.4,629.5,420.5,632.2,420.3z M636.8,420.3
		c2.9-0.1,5.3,0.6,7.2,2.2c1.9,1.6,3.4,3.7,4.5,6.4c1.1,2.7,1.9,5.8,2.4,9.3c0.5,3.5,0.8,7.2,0.9,10.9c0.1,3.8,0.1,7.6-0.1,11.4
		c-0.2,3.8-0.4,7.3-0.6,10.6c-0.4,5.6-1.7,9.8-3.9,12.7c-2.1,2.9-5.4,4.8-9.8,5.6c-0.4-1.3-0.7-2.8-0.8-4.3c-0.1-1.5,0-2.9,0.3-4.3
		c0.3-1.4,0.8-2.6,1.4-3.6c0.7-1.1,1.5-1.7,2.5-2.1c-0.1-2.2-0.1-4.7,0-7.4c0.2-2.7,0.3-5.5,0.5-8.3c0.2-2.8,0.3-5.7,0.4-8.6
		c0.1-2.9,0-5.6-0.3-8.1c-0.3-2.5-0.7-4.8-1.4-6.8c-0.7-2-1.8-3.6-3.3-4.8V420.3z"/>
	<path d="M658.3,421h22.3c-0.1,1.2-0.4,2.2-0.7,3.1c-0.3,0.9-0.7,1.8-1.1,2.7c-0.4,0.9-0.7,1.7-1.1,2.6c-0.3,0.9-0.5,1.9-0.7,3h-9.7
		v10.8h-9.1V421z M691.3,421c-0.3,6.6-1,12.8-2.4,18.5c-1.3,5.7-2.8,11.3-4.5,16.8c-1.7,5.4-3.5,10.8-5.3,16.1
		c-1.9,5.3-3.5,10.8-4.9,16.6h-10.3c1.8-5.6,3.5-11.4,5.1-17.2c1.6-5.8,3.2-11.6,4.9-17.4c1.7-5.8,3.4-11.5,5.2-17.1
		c1.8-5.6,3.8-11.1,5.9-16.3H691.3z"/>
	<path d="M272.2,536.2c1,5.6,2.1,11.2,3.4,16.8c1.3,5.6,2.5,11.2,3.8,16.8c1.2,5.6,2.4,11.3,3.4,16.9c1,5.7,1.6,11.4,2,17.2h-9.1
		c-1-5.8-2-11.4-3.2-17c-1.2-5.6-2.3-11.2-3.5-16.8c-1.2-5.6-2.3-11.2-3.4-16.8s-2.1-11.4-3-17.2H272.2z M296.1,536.2
		c1.8,6.8,3.6,13.6,5.3,20.4c1.7,6.8,3.4,13.7,5,20.7c1-3.1,1.9-6.4,2.6-9.8c0.7-3.4,1.4-6.9,2-10.4c0.6-3.5,1.2-7,1.8-10.6
		c0.6-3.5,1.3-6.9,2.2-10.3h10.4c-0.9,5.8-1.9,11.6-3.1,17.2c-1.2,5.6-2.3,11.2-3.5,16.8c-1.2,5.6-2.3,11.2-3.5,16.8
		c-1.1,5.6-2.2,11.3-3.1,17.1H303c-1.5-7-3-14-4.5-20.9c-1.5-6.9-3.1-13.8-4.8-20.7c-1.3,4.4-2.3,9-3.2,13.9
		c-0.8,4.8-1.9,9.5-3.1,14.1c-2-4.4-3.2-8.9-3.6-13.5c-0.4-4.6-0.2-9.2,0.4-13.8c0.6-4.6,1.6-9.2,2.9-13.7c1.3-4.5,2.5-8.9,3.7-13.1
		H296.1z"/>
	<path d="M358,538.4c-3.1,12.3-6.4,24.4-9.7,36.4c-3.4,12-6.6,24.2-9.6,36.6h-9.1c3.3-11.9,6.6-23.8,9.7-35.7
		c3.2-11.9,6.4-23.8,9.6-35.7c0.1-0.8,0.4-1.4,1.2-1.6c0.7-0.2,1.5-0.3,2.4-0.3c0.9,0,1.9,0.1,2.9,0.2
		C356.5,538.6,357.3,538.6,358,538.4z"/>
	<path d="M369.3,586.4c0.9,0.7,1.7,1.4,2.5,2.2c0.8,0.8,1.6,1.5,2.5,2.2c0.9,0.7,1.9,1.2,3,1.7c1.1,0.4,2.4,0.7,3.9,0.8v10.8
		c-2.3,0.1-4.4-0.1-6.1-0.6c-1.8-0.4-3.4-1.1-4.8-1.9c-1.4-0.8-2.7-1.8-3.9-2.8c-1.2-1.1-2.3-2.1-3.5-3.2c0.4-0.9,0.9-1.7,1.4-2.4
		c0.6-0.7,1.2-1.4,1.8-2.1c0.6-0.7,1.2-1.4,1.7-2.2C368.4,588.1,368.9,587.3,369.3,586.4z M379.5,535.6c0.6,0.3,1,0.8,1.2,1.5
		c0.1,0.8,0.2,1.6,0.1,2.6c-0.1,1-0.1,1.9-0.2,2.9c-0.1,1,0,1.9,0.1,2.6c-0.8,0.4-1.7,1.2-2.7,2.4c-1,1.2-1.7,2.5-2.3,4
		c-0.6,1.5-0.8,3.1-0.8,4.7c0,1.6,0.6,3,1.8,4.3c0.8,0.9,2,1.5,3.5,1.9c1.5,0.4,3.1,0.7,4.8,0.9c1.8,0.3,3.5,0.6,5.3,1
		c1.8,0.4,3.3,1.1,4.8,2c2,1.4,3.6,3.3,4.7,5.8c1.1,2.4,1.7,5.1,1.8,7.9c0.2,2.8-0.1,5.7-0.8,8.6c-0.7,2.9-1.7,5.5-3.2,7.8
		c-1.4,2.3-3.2,4.2-5.4,5.6c-2.2,1.4-4.7,2.1-7.5,2v-10.3c1.6-0.3,3-1.3,4.1-2.9c1.1-1.6,1.8-3.5,2.1-5.5c0.3-2,0.1-4-0.5-6
		c-0.6-2-2-3.4-3.9-4.4c-1.2-0.6-2.6-1-4-1.2c-1.5-0.2-3-0.4-4.5-0.6c-1.5-0.2-2.9-0.5-4.3-0.9c-1.4-0.4-2.6-1.1-3.7-2
		c-1.7-1.5-3-3.4-3.8-5.7c-0.8-2.3-1.3-4.7-1.3-7.2c-0.1-2.5,0.2-5.1,0.9-7.6c0.7-2.5,1.6-4.8,2.9-6.9c1.3-2.1,2.8-3.8,4.7-5.1
		C375.1,536.5,377.2,535.8,379.5,535.6z M384.6,535c3.6,0.3,6.6,1.2,9.1,2.6c2.5,1.4,4.6,3.2,6.3,5.4c-1,1.5-2,2.9-3.2,4.2
		c-1.2,1.3-2.2,2.8-3.1,4.4c-1.3-1.2-2.6-2.3-4.1-3.4c-1.4-1-3.2-1.8-5.1-2.4V535z"/>
	<path d="M420.5,535.4c0.4,3,0.6,6.4,0.5,10.2c-0.1,3.8-0.3,7.6-0.5,11.6c-0.2,4-0.4,7.9-0.6,11.8c-0.2,3.9-0.1,7.5,0.3,10.8
		c0.4,3.3,1.1,6.2,2.1,8.6c1.1,2.5,2.7,4.2,4.9,5.2v10.3c-4.4-0.3-7.9-1.6-10.3-3.9c-2.5-2.3-4.2-5.3-5.3-8.9
		c-1.1-3.6-1.7-7.8-1.8-12.4c-0.1-4.6-0.1-9.4,0.1-14.4c0.2-5,0.4-9.9,0.6-14.9c0.2-5,0.1-9.6-0.4-13.9H420.5z M447.9,535.4
		c-0.4,4.2-0.6,8.8-0.4,13.8c0.2,5,0.4,9.9,0.6,14.9c0.2,5,0.3,9.8,0.2,14.4c-0.1,4.6-0.7,8.8-1.8,12.4c-1.1,3.6-2.9,6.6-5.3,8.9
		c-2.4,2.3-5.9,3.6-10.4,3.9v-9.7c0.3-0.7,0.8-1.2,1.3-1.6c0.5-0.4,1.1-0.7,1.7-1.1c0.6-0.4,1.2-0.8,1.8-1.2
		c0.6-0.4,1.1-1.1,1.4-1.8c0.7-1.6,1.2-3.7,1.4-6.3c0.3-2.6,0.4-5.5,0.3-8.7c0-3.2-0.1-6.5-0.3-10c-0.2-3.5-0.4-6.9-0.5-10.4
		c-0.2-3.4-0.2-6.6-0.2-9.6c0-3.1,0.2-5.8,0.5-8.1H447.9z"/>
	<path d="M468.2,536.6c-0.3,11.1-0.5,22.3-0.6,33.4c-0.1,11.1-0.1,22.5,0,34h-10.3c0.1-5.6,0.2-11.3,0.1-17.1
		c-0.1-5.8-0.1-11.5-0.1-17.3c0-5.8,0-11.5,0-17.1c0.1-5.6,0.3-11.1,0.6-16.5c0.8,0.1,1.7,0.1,2.7,0c1,0,1.9-0.1,2.8-0.1
		c0.9,0,1.8,0,2.6,0C467,536.1,467.7,536.3,468.2,536.6z M471.7,575.9v-10.3c3,1,5.5,1.1,7.4,0.3c1.9-0.8,3.3-2.1,4.2-3.8
		c0.9-1.7,1.3-3.7,1.2-5.9c-0.1-2.2-0.6-4.2-1.6-6c-1-1.8-2.4-3.1-4.3-4c-1.9-0.9-4.2-0.8-7,0V536c3.9-1,7.3-1.1,10.2-0.3
		c2.9,0.8,5.3,2.2,7.2,4.2c2,2,3.4,4.4,4.4,7.3s1.4,5.8,1.4,8.8c0,3-0.5,5.9-1.5,8.7c-1,2.8-2.4,5.2-4.3,7.2s-4.3,3.4-7.2,4.3
		C478.9,577.1,475.5,577,471.7,575.9z"/>
	<path d="M513.6,536.6c-0.3,11.1-0.5,22.3-0.6,33.4c-0.1,11.1-0.1,22.5,0,34h-10.3c0.1-5.6,0.2-11.3,0.1-17.1
		c-0.1-5.8-0.1-11.5-0.1-17.3c0-5.8,0-11.5,0-17.1c0.1-5.6,0.3-11.1,0.6-16.5c0.8,0.1,1.7,0.1,2.7,0c1,0,1.9-0.1,2.8-0.1
		c0.9,0,1.8,0,2.6,0C512.4,536.1,513.1,536.3,513.6,536.6z M517.1,575.9v-10.3c3,1,5.5,1.1,7.4,0.3c1.9-0.8,3.3-2.1,4.2-3.8
		c0.9-1.7,1.3-3.7,1.2-5.9c-0.1-2.2-0.6-4.2-1.6-6c-1-1.8-2.4-3.1-4.3-4c-1.9-0.9-4.2-0.8-7,0V536c3.9-1,7.3-1.1,10.2-0.3
		c2.9,0.8,5.3,2.2,7.2,4.2c2,2,3.4,4.4,4.4,7.3s1.4,5.8,1.4,8.8c0,3-0.5,5.9-1.5,8.7c-1,2.8-2.4,5.2-4.3,7.2s-4.3,3.4-7.2,4.3
		C524.3,577.1,520.9,577,517.1,575.9z"/>
	<path d="M559.2,536.2v68c-0.9-0.1-1.8-0.1-2.8,0c-1,0-2,0.1-3,0.1c-1,0-1.9,0-2.8,0c-0.9-0.1-1.6-0.3-2.3-0.6
		c0.1-5.6,0.2-11.2,0.1-16.9c-0.1-5.7-0.1-11.4-0.2-17.1c-0.1-5.7-0.1-11.3,0-16.9c0.1-5.6,0.3-11.1,0.6-16.4H559.2z M563.2,593.3
		H582v10.8h-18.8V593.3z"/>
	<path d="M589.8,591.7H600v12.6h-10.3V591.7z"/>
	<path d="M624.4,535.9h2.3v9.6c-1.3,0.6-2.4,1.3-3.1,2.1c-0.7,0.8-1.4,2-2.1,3.6c-0.4,1.1-0.7,2.7-1.1,4.7c-0.3,2-0.5,4.3-0.7,6.8
		c-0.1,2.5-0.2,5.1-0.2,7.8c0,2.7,0,5.3,0.2,7.8c0.2,2.5,0.4,4.7,0.7,6.6c0.3,2,0.7,3.4,1.1,4.5c0.3,0.6,0.7,1.2,1.2,1.6
		c0.5,0.4,1,0.8,1.5,1.2c0.5,0.4,1,0.8,1.4,1.2c0.4,0.4,0.8,1,1.1,1.7c0.5,1.4,0.6,2.9,0.2,4.6c-0.4,1.6-0.6,3.2-0.8,4.6
		c-3.3-0.4-6.4-1.7-9.1-3.9c-2.7-2.2-4.7-5.3-5.8-9.2c-0.6-2.3-1.2-4.9-1.6-7.8s-0.7-5.9-0.8-9.1c-0.1-3.2-0.1-6.4,0-9.6
		c0.2-3.2,0.4-6.3,0.9-9.1c0.4-2.8,1-5.5,1.7-7.8c0.7-2.4,1.6-4.3,2.6-5.7c1.1-1.6,2.7-2.9,4.7-3.9
		C620.9,537.2,622.8,536.4,624.4,535.9z M630.1,535.9h4c2.6,0.3,4.8,1.1,6.4,2.4c1.7,1.2,3,2.8,4,4.8c1,1.9,1.8,4.1,2.3,6.6
		c0.5,2.5,0.8,5.1,1,7.9h-10.3c-0.2-3.1-0.9-5.8-2.1-7.9c-1.2-2.1-3-3.6-5.4-4.6V535.9z M647.9,583.2c-0.2,3.1-0.6,5.9-1.2,8.6
		c-0.6,2.7-1.6,4.9-2.9,6.9c-1.3,1.9-3.1,3.4-5.2,4.4c-2.2,1-5,1.4-8.4,1.2v-10.3c1.5-0.1,2.7-0.4,3.6-1.1c0.9-0.6,1.6-1.5,2.1-2.4
		c0.5-1,0.9-2.1,1.2-3.4c0.3-1.3,0.5-2.6,0.7-3.9H647.9z"/>
	<path d="M666,536.2v67.4c-0.6,0.3-1.3,0.5-2.1,0.6c-0.8,0.1-1.7,0.1-2.6,0c-0.9,0-1.9-0.1-2.8-0.1c-1,0-1.9,0-2.7,0
		c0.1-5.6,0.2-11.3,0.1-17.1c-0.1-5.8-0.1-11.5-0.1-17.3c0-5.8,0-11.5,0-17.1c0.1-5.6,0.3-11.1,0.6-16.5H666z M693.4,536.2v68h-10.3
		v-30.2h-13.6v-9.7h13.1c0.3-2,0.5-4.2,0.6-6.6c0.1-2.3,0.1-4.7,0-7.1c0-2.4-0.1-4.8-0.1-7.2c0-2.4,0-4.8,0-7.1H693.4z"/>
	<path d="M717.9,535.7h2.8v10.2c-0.6,0.3-1.1,0.6-1.6,0.9c-0.5,0.3-1,0.6-1.5,0.9c-0.5,0.4-0.9,0.8-1.3,1.3
		c-0.4,0.5-0.8,1.2-1.2,2.1c-0.4,0.9-0.7,2.3-1.1,4.2c-0.3,1.9-0.6,4-0.7,6.4c-0.2,2.4-0.3,4.9-0.3,7.6c-0.1,2.7,0,5.2,0.1,7.7
		c0.1,2.5,0.4,4.8,0.7,6.8c0.4,2,0.8,3.7,1.3,4.9c0.4,0.8,0.8,1.5,1.3,2c0.5,0.5,1,0.9,1.6,1.3c0.5,0.4,1.1,0.7,1.5,0.9
		c0.5,0.3,0.9,0.6,1.2,1c-0.1,0.8-0.1,1.7,0,2.7c0,1,0.1,1.9,0.1,2.8c0.1,0.9,0.1,1.8,0,2.6c-0.1,0.8-0.3,1.5-0.6,2.1
		c-1.6-0.1-3.4-0.5-5.4-1.2c-2-0.7-3.7-1.6-4.9-2.8c-1.3-1.3-2.5-3.3-3.4-6c-0.9-2.7-1.7-5.8-2.3-9.4c-0.6-3.5-1-7.3-1.2-11.2
		c-0.2-4-0.2-7.8-0.1-11.5c0.1-3.7,0.4-7,1-10.1c0.5-3,1.2-5.4,2-7.2c1.1-2.4,2.8-4.4,5.1-5.9C713.3,537.4,715.6,536.4,717.9,535.7z
		 M722.4,566h19.4c0.2,4.9,0.2,9.6,0.1,14.1c-0.1,4.5-0.7,8.6-1.8,12.1c-1.1,3.6-2.9,6.4-5.4,8.5c-2.5,2.1-6,3.3-10.6,3.4v-10.8
		c1.9-0.2,3.4-0.8,4.5-1.8c1.1-1,1.8-2.3,2.3-3.9c0.5-1.6,0.8-3.4,0.8-5.5c0.1-2,0-4.2-0.2-6.4c-0.4-0.3-1.1-0.5-1.8-0.6
		c-0.8-0.1-1.6-0.1-2.4,0c-0.8,0-1.7,0.1-2.5,0.1c-0.9,0-1.6,0-2.4,0V566z M724.2,535.7h2.9c4.9,1.1,8.5,3.5,10.8,7.3
		s3.6,8.6,3.9,14.3h-10.3c0.1-1.7-0.1-3.1-0.5-4.3c-0.4-1.2-1-2.2-1.7-3.1c-0.7-0.9-1.6-1.7-2.4-2.4c-0.9-0.7-1.8-1.5-2.7-2.2V535.7
		z"/>
	<path d="M456.5,695.9v38.4h-5.8c0-3.2,0-6.4,0-9.6c0-3.3,0-6.5-0.1-9.8c0-3.3,0-6.5,0-9.6c0-3.2,0.1-6.3,0.3-9.3H456.5z"/>
	<path d="M467.9,696.2c0.2,3,0.3,6.1,0.3,9.3c0,3.2,0,6.3,0,9.6c0,3.2,0,6.4-0.1,9.6c0,3.2,0,6.4,0,9.5h-5.8
		c0.1-3.2,0.1-6.4,0.1-9.6c0-3.3-0.1-6.5-0.1-9.8c0-3.3,0-6.5,0-9.6c0-3.2,0.1-6.3,0.3-9.3c0.4,0,0.9,0,1.4,0c0.5,0,0.9,0,1.4-0.1
		c0.5,0,0.9,0,1.4,0C467.3,695.9,467.6,696,467.9,696.2z M484.7,695.9v38.4h-5.1c-0.6-1.7-1.3-3.3-2.1-4.8c-0.8-1.5-1.6-3-2.3-4.6
		c-0.8-1.5-1.5-3.1-2.2-4.7c-0.7-1.6-1.3-3.3-1.7-5.1c-0.5-1.8-0.8-3.8-0.9-6s-0.1-4.5,0.2-7.1c1.4,2.8,2.8,5.6,4.2,8.4
		c1.3,2.8,2.6,5.7,3.9,8.7c0.2-1.8,0.3-3.6,0.3-5.6c0-1.9,0-3.9,0-5.9c0-2,0-4-0.1-6c0-2,0-3.9,0-5.9H484.7z"/>
	<path d="M495.4,695.9v38.4h-5.7c0-3.2,0-6.4,0-9.6c0-3.3-0.1-6.5-0.1-9.8c0-3.3,0-6.5,0-9.6c0-3.2,0.1-6.3,0.3-9.3H495.4z
		 M497.7,695.9H509v5.8h-11.3V695.9z M497.7,711.7h7.7v5.5h-7.7V711.7z M497.7,728.1H509v6.1h-11.3V728.1z"/>
	<path d="M519.4,695.9v38.3h-5.8c0.1-3.2,0.1-6.4,0.1-9.6c0-3.3-0.1-6.5-0.1-9.7c0-3.2,0-6.4,0-9.6c0-3.2,0.1-6.3,0.3-9.3H519.4z
		 M529.4,717.8c0.4,1.4,0.9,2.8,1.4,4.2c0.5,1.4,1.1,2.7,1.6,4c0.5,1.3,1.1,2.7,1.6,4c0.5,1.3,1,2.7,1.5,4.2h-6.7
		c-0.9-2.7-1.9-5.4-2.9-7.9c-1-2.6-2-5.2-3-7.8c0-0.2,0-0.3-0.2-0.4c-0.2,0-0.4,0-0.6,0c-0.2,0-0.4,0-0.6,0c-0.2,0-0.3-0.1-0.2-0.3
		v-5.1c1.3,0.4,2.5,0.5,3.4,0.3c0.9-0.2,1.7-0.5,2.2-1.1c0.6-0.5,1-1.2,1.3-2c0.3-0.8,0.4-1.7,0.4-2.6c0-0.9-0.1-1.8-0.4-2.7
		c-0.3-0.9-0.6-1.6-1.1-2.3c-1.6-0.5-3.6-0.8-5.8-0.6c0-0.5,0-1,0-1.5c0-0.5,0-1-0.1-1.6c0-0.5,0-1,0-1.5c0-0.5,0.1-0.9,0.3-1.2
		c2.4-0.6,4.5-0.6,6.2,0c1.7,0.6,3.1,1.6,4.1,3c1,1.4,1.8,3,2.2,4.8c0.4,1.9,0.5,3.7,0.2,5.5c-0.3,1.8-0.8,3.5-1.7,5.1
		C531.9,715.9,530.8,717,529.4,717.8z"/>
	<path d="M552,695.9v38.3h-5.8v-32.6h-7.7c0.1-0.4,0.1-0.9,0.1-1.5c0-0.6-0.1-1.2-0.1-1.7c0-0.6,0-1.1,0.1-1.5
		c0.1-0.5,0.3-0.8,0.6-0.9H552z M554.2,695.9h5.1v5.7h-5.1V695.9z"/>
</g>
<g>
	<rect x="453.2" y="38.4" class="st0" width="46.9" height="46.9"/>
	<rect x="388.5" y="38.4" class="st0" width="46.9" height="46.9"/>
	<rect x="579.1" y="38.4" class="st0" width="46.9" height="46.9"/>
	<rect x="519.1" y="38.4" class="st0" width="46.9" height="46.9"/>
</g>
<g>
</g>
<g>
</g>
<g>
</g>
<g>
</g>
<g>
</g>
<g>
</g>
</svg>
